<?xml version="1.0" encoding="UTF-8" standalone="no"?>
<svg
   width="100"
   height="100"
   viewBox="0 0 20 20"
   version="1.1"
   id="svg1"
   sodipodi:docname="cloudy.svg"
   inkscape:version="1.4 (e7c3feb100, 2024-10-09)"
   xmlns:inkscape="http://www.inkscape.org/namespaces/inkscape"
   xmlns:sodipodi="http://sodipodi.sourceforge.net/DTD/sodipodi-0.dtd"
   xmlns="http://www.w3.org/2000/svg"
   xmlns:svg="http://www.w3.org/2000/svg">
  <defs
     id="defs1" />
  <sodipodi:namedview
     id="namedview1"
     pagecolor="#ffffff"
     bordercolor="#000000"
     borderopacity="0.25"
     inkscape:showpageshadow="2"
     inkscape:pageopacity="0.0"
     inkscape:pagecheckerboard="0"
     inkscape:deskcolor="#d1d1d1"
     inkscape:zoom="39.05"
     inkscape:cx="10"
     inkscape:cy="10"
     inkscape:window-width="1920"
     inkscape:window-height="1009"
     inkscape:window-x="0"
     inkscape:window-y="0"
     inkscape:window-maximized="1"
     inkscape:current-layer="svg1" />
  <path
     fill="#e3e3e3"
     d="M11 7c2.465 0 3.863 1.574 4.066 3.474h.062c1.586 0 2.872 1.237 2.872 2.763S16.714 16 15.128 16H6.872C5.286 16 4 14.763 4 13.237s1.286-2.763 2.872-2.763h.062C7.139 8.561 8.535 7 11 7M8.392 4c1.456 0 2.726.828 3.353 2.045A6 6 0 0 0 11 6C8.61 6 6.868 7.307 6.246 9.286l-.062.214l-.046.187l-.165.03a3.73 3.73 0 0 0-2.716 2.258a2.622 2.622 0 0 1 1.2-4.856l.222-.005A3.77 3.77 0 0 1 8.392 4"
     id="path1" />
  <path
     style="fill:#cccccc;fill-opacity:1;fill-rule:evenodd;stroke-width:0.0256082"
     d="M 3.098774,11.851955 C 2.7686989,11.62967 2.3965292,11.168573 2.2285237,10.773766 2.0629739,10.38473 2.035694,10.235821 2.0375106,9.731114 2.038913,9.3414878 2.0477003,9.2393247 2.0943026,9.0708379 2.321713,8.248654 2.9391362,7.5758515 3.7316636,7.2866149 3.9823243,7.195135 4.3054806,7.1318822 4.5221873,7.1318822 c 0.1570089,0 0.1637387,-0.00265 0.1791663,-0.070422 C 4.8976661,6.1990179 5.2155129,5.6221187 5.8073414,5.0540674 6.3349654,4.5476412 7.0150597,4.199411 7.7336748,4.0677226 8.096272,4.0012756 8.7646307,4.007165 9.1053688,4.0798096 10.209481,4.315204 11.086078,4.9419395 11.649541,5.8988025 l 0.08065,0.1369586 -0.122458,-0.014455 C 11.115697,5.963228 10.470086,5.9868665 9.9399903,6.0823694 8.2279939,6.3908056 6.9426543,7.4309892 6.3381785,8.9971997 6.2874038,9.128758 6.2195898,9.3353603 6.1874809,9.4563157 l -0.05838,0.2199191 -0.1644225,0.033189 C 5.119727,9.8799775 4.3044735,10.384216 3.777863,11.061981 c -0.1963163,0.252665 -0.2610207,0.355343 -0.4108677,0.651998 -0.064522,0.127734 -0.1197712,0.232244 -0.1227771,0.232244 -0.00301,0 -0.068456,-0.04242 -0.1454442,-0.09427 z"
     id="path2" />
</svg>
