<?xml version="1.0" encoding="UTF-8" standalone="no"?>
<svg
   width="100"
   height="100"
   viewBox="0 0 20 20"
   version="1.1"
   id="svg1"
   sodipodi:docname="partly-cloudy-day.svg"
   inkscape:version="1.4 (e7c3feb100, 2024-10-09)"
   xmlns:inkscape="http://www.inkscape.org/namespaces/inkscape"
   xmlns:sodipodi="http://sodipodi.sourceforge.net/DTD/sodipodi-0.dtd"
   xmlns="http://www.w3.org/2000/svg"
   xmlns:svg="http://www.w3.org/2000/svg">
  <defs
     id="defs1" />
  <sodipodi:namedview
     id="namedview1"
     pagecolor="#ffffff"
     bordercolor="#000000"
     borderopacity="0.25"
     inkscape:showpageshadow="2"
     inkscape:pageopacity="0.0"
     inkscape:pagecheckerboard="0"
     inkscape:deskcolor="#d1d1d1"
     inkscape:zoom="2.440625"
     inkscape:cx="-41.587708"
     inkscape:cy="77.644045"
     inkscape:window-width="1920"
     inkscape:window-height="1009"
     inkscape:window-x="0"
     inkscape:window-y="0"
     inkscape:window-maximized="1"
     inkscape:current-layer="svg1" />
  <path
     fill="#d4d4d4"
     d="M11 7c2.464 0 3.863 1.573 4.066 3.474h.062c1.586 0 2.872 1.237 2.872 2.763S16.714 16 15.128 16H6.872C5.286 16 4 14.763 4 13.237s1.286-2.763 2.872-2.763h.062C7.138 8.56 8.535 7 11 7M3.803 9.7a.5.5 0 0 1-.228.6l-.082.036l-.801.276a.5.5 0 0 1-.408-.909l.082-.036l.802-.276a.5.5 0 0 1 .635.31M8.92 5.5c.332.162.625.373.873.62c-1.762.364-3.03 1.533-3.543 3.156l-.065.224l-.046.187l-.166.03a3.8 3.8 0 0 0-1.25.504A3.28 3.28 0 0 1 8.919 5.5m-6.003.17L3 5.702l.762.371a.5.5 0 0 1-.354.931l-.085-.032l-.761-.371a.5.5 0 0 1 .354-.931m7.073-2.375a.5.5 0 0 1 .262.585l-.032.084l-.371.762a.5.5 0 0 1-.931-.354l.032-.085l.371-.762a.5.5 0 0 1 .67-.23M6.2 3.263l.037.082l.276.802a.5.5 0 0 1-.909.407l-.037-.082l-.275-.801a.5.5 0 0 1 .908-.408"
     id="path1" />
  <path
     style="fill:#ffd42a;fill-rule:evenodd;stroke-width:0.0256082"
     d="M 4.5879056,9.951388 C 4.1872033,9.1841995 4.1095116,8.2446218 4.3797466,7.4339846 4.7076236,6.4504362 5.4737676,5.6821301 6.4533267,5.3545529 6.8498935,5.2219358 7.1608051,5.177975 7.5928297,5.193435 8.0940668,5.2113717 8.4637268,5.3001 8.9002612,5.5072535 9.2437857,5.67027 9.8136917,6.0895461 9.7299388,6.1176419 9.7094584,6.1245122 9.5774648,6.1607346 9.4366197,6.198136 7.8426548,6.6214135 6.6154604,7.8532919 6.1866582,9.4605027 L 6.1290444,9.6764471 5.9524529,9.712137 C 5.6526979,9.7727188 5.3182122,9.8919926 5.0107624,10.047933 L 4.7163299,10.19727 Z"
     id="path2" />
  <path
     style="fill:#ffd42a;fill-rule:evenodd;stroke-width:0.0256082"
     d="M 5.8644594,4.7607431 C 5.6649142,4.6742091 5.6243338,4.6049541 5.4170867,3.9972522 5.2547749,3.5213117 5.2465355,3.4230682 5.354307,3.2486902 5.5257562,2.9712796 5.9798962,2.9634032 6.1627027,3.2346698 6.2336425,3.3399373 6.5302878,4.2239369 6.5295272,4.3278026 6.5281572,4.5149091 6.3642504,4.7228473 6.1771817,4.7748014 6.0488549,4.8104412 5.9709904,4.8069408 5.8644594,4.7607431 Z"
     id="path3" />
  <path
     style="fill:#ffd42a;fill-rule:evenodd;stroke-width:0.0256082"
     d="M 9.2701665,4.9762518 C 9.1370285,4.9385108 9.0263941,4.8431349 8.9623927,4.7109258 8.872103,4.5244122 8.8964489,4.4225991 9.1580115,3.8928581 9.4400108,3.3217271 9.4836397,3.2778489 9.7695262,3.2778489 c 0.1706806,0 0.195883,0.00694 0.2839128,0.078189 0.128356,0.1038872 0.199934,0.2467075 0.197705,0.3944817 -0.0014,0.092993 -0.04592,0.2097591 -0.209742,0.5501736 C 9.9270236,4.538363 9.8053062,4.7697069 9.770919,4.8147909 9.6649945,4.953665 9.4429978,5.0252449 9.2701665,4.9762518 Z"
     id="path4" />
  <path
     style="fill:#ffd42a;fill-rule:evenodd;stroke-width:0.0256082"
     d="M 2.952815,6.7765783 C 2.3558746,6.480292 2.2843855,6.4045358 2.3100202,6.0954148 2.3305537,5.8478078 2.5293377,5.6722151 2.7891136,5.6722151 c 0.1103434,0 0.1939766,0.033112 0.6092148,0.2412002 0.4344914,0.2177364 0.4881637,0.2518654 0.5517356,0.3508365 0.054344,0.084605 0.070423,0.1408563 0.070423,0.2463758 0,0.2907635 -0.1982099,0.4932136 -0.4828833,0.4932136 -0.1082142,0 -0.1943704,-0.033482 -0.5847887,-0.2272629 z"
     id="path5" />
  <path
     style="fill:#ffd42a;fill-rule:evenodd;stroke-width:0.0256082"
     d="m 2.3972028,10.601278 c -0.2091893,-0.05312 -0.3485472,-0.236525 -0.3485472,-0.458724 0,-0.301978 0.1080788,-0.3929512 0.7113424,-0.5987577 0.5466616,-0.1864965 0.65153,-0.1971791 0.8292493,-0.084473 0.2717703,0.1723516 0.299342,0.5677907 0.053984,0.7742467 -0.074245,0.06247 -0.8337297,0.34213 -1.0335787,0.380584 -0.05112,0.0098 -0.1455367,0.0041 -0.2124496,-0.01288 z"
     id="path6" />
  <path
     style="fill:#f9f9f9;fill-rule:evenodd;stroke-width:0.144862"
     d="m 32.231756,79.787427 c -1.950572,-0.271362 -4.706476,-1.380246 -6.352411,-2.556 -1.256622,-0.897652 -3.126361,-2.896254 -3.851666,-4.117122 -1.446361,-2.434588 -1.95941,-4.504449 -1.856013,-7.48797 0.05859,-1.690633 0.136995,-2.238848 0.46671,-3.26332 1.36189,-4.231584 4.477419,-7.473982 8.647839,-8.999991 1.344856,-0.4921 3.01146,-0.850613 3.954209,-0.850613 1.036617,0 1.526414,-0.14722 1.526414,-0.4588 0,-0.152748 0.101355,-0.780181 0.225234,-1.394295 0.828356,-4.106478 2.460734,-7.243535 5.188713,-9.971514 2.693071,-2.693072 5.641904,-4.236556 9.853901,-5.157752 1.28346,-0.280702 1.891795,-0.32012 4.940376,-0.32012 3.759311,0 5.068193,0.176251 7.595648,1.022812 6.37602,2.135622 10.833608,7.178039 12.331116,13.948944 0.151355,0.684343 0.276601,1.452128 0.278326,1.706187 0.0035,0.512696 0.01528,0.516405 2.176062,0.684035 2.041119,0.158345 4.57128,1.089953 6.535996,2.406562 1.341773,0.899155 3.263595,2.924492 4.093923,4.314431 1.483682,2.48363 2.185268,5.63252 1.854547,8.323654 -0.737939,6.004745 -5.185761,10.749562 -11.25,12.001197 -1.244111,0.256779 -2.378657,0.268787 -23.615618,0.249936 -12.269796,-0.01089 -22.504284,-0.04701 -22.743306,-0.08026 z"
     id="path7"
     transform="scale(0.2)" />
  <path
     style="fill:#ffff00;fill-rule:evenodd;stroke-width:0.144862"
     d="m 23.092127,49.878487 c -2.446082,-4.856962 -2.543528,-10.006581 -0.27797,-14.68947 1.560643,-3.225835 4.551073,-6.166843 7.793955,-7.665147 4.814189,-2.224292 10.595661,-1.939839 15.036623,0.739813 1.223273,0.738116 2.754843,1.904292 2.838236,2.161104 0.02655,0.08177 -0.424906,0.26839 -1.003241,0.41472 -4.081118,1.032608 -7.493253,2.982365 -10.546704,6.026584 -2.003603,1.997543 -3.15109,3.562722 -4.32628,5.901067 -0.706486,1.405736 -1.889351,4.614334 -1.893906,5.13734 -0.0029,0.330222 -0.06485,0.358759 -1.655267,0.762201 -1.419522,0.360092 -3.739318,1.281478 -4.822674,1.915492 l -0.608905,0.356348 z"
     id="path8"
     transform="scale(0.2)" />
  <path
     style="fill:#ffff00;fill-rule:evenodd;stroke-width:0.144862"
     d="M 45.776336,24.530475 C 45.489125,24.338458 45.117262,23.8848 44.918573,23.484038 44.597597,22.836618 44.582685,22.71983 44.742876,22.10806 c 0.271604,-1.037257 2.119781,-4.675054 2.616434,-5.149972 0.366749,-0.350699 0.597628,-0.436386 1.315781,-0.488333 0.739486,-0.05349 0.946115,-0.01152 1.368616,0.277981 0.750198,0.514044 1.141236,1.309012 1.059961,2.154864 -0.0983,1.023012 -2.105042,5.068858 -2.73755,5.519243 -0.70541,0.502296 -1.924469,0.553431 -2.589782,0.108632 z"
     id="path9"
     transform="scale(0.2)" />
  <path
     style="fill:#ffff00;fill-rule:evenodd;stroke-width:0.144862"
     d="m 29.506007,23.764754 c -1.064352,-0.379595 -1.408534,-0.956142 -2.400518,-4.021162 -0.694981,-2.147344 -0.736314,-2.737975 -0.242467,-3.464737 0.933335,-1.373526 3.248014,-1.298574 3.974401,0.128696 0.326885,0.642293 1.548461,4.258266 1.685703,4.989831 0.105902,0.564503 -0.243186,1.423443 -0.773383,1.90293 -0.280221,0.25342 -1.234075,0.661603 -1.546053,0.661603 -0.07967,0 -0.393631,-0.08872 -0.697683,-0.197161 z"
     id="path10"
     transform="scale(0.2)" />
  <path
     style="fill:#ffff00;fill-rule:evenodd;stroke-width:0.144862"
     d="m 17.166126,34.888616 c -0.50705,-0.129979 -3.739472,-1.743663 -4.45958,-2.226303 -0.889763,-0.596349 -1.170666,-1.131085 -1.081523,-2.058818 0.118955,-1.237987 1.083237,-2.138147 2.290457,-2.138147 0.980429,0 5.253637,2.143274 5.746949,2.882444 0.661984,0.991907 0.347086,2.471299 -0.68553,3.220619 -0.383059,0.277968 -1.32545,0.444614 -1.810773,0.320205 z"
     id="path11"
     transform="scale(0.2)" />
  <path
     style="fill:#ffd42a;fill-rule:evenodd;stroke-width:0.144862"
     d="m 12.073744,52.922114 c -1.392472,-0.304323 -2.1734095,-1.945116 -1.550527,-3.257743 0.317346,-0.668756 1.260463,-1.190956 3.489872,-1.932326 2.176186,-0.723671 3.006278,-0.845171 3.616903,-0.529405 1.413515,0.730958 1.780839,2.591003 0.719819,3.645003 -0.44776,0.444797 -1.691632,0.991986 -3.93606,1.731502 -1.385575,0.456533 -1.645838,0.494679 -2.340007,0.342969 z"
     id="path12"
     transform="scale(0.2)" />
  <path
     style="fill:#ffd42a;fill-rule:evenodd;stroke-width:0.144862"
     d="m 45.7194,24.395524 c -0.606847,-0.477346 -1.002499,-1.379432 -0.910361,-2.075622 0.11276,-0.852012 2.15674,-4.886971 2.712452,-5.354572 0.380518,-0.320184 0.590246,-0.378651 1.358267,-0.378651 0.843919,0 0.945665,0.03632 1.436169,0.512693 0.602835,0.585466 0.7403,0.984453 0.641422,1.861697 -0.147876,1.311956 -2.031863,5.004764 -2.790793,5.470242 -0.626355,0.384166 -1.937651,0.36499 -2.447156,-0.03579 z"
     id="path13"
     transform="scale(0.2)" />
  <path
     style="fill:#ffd42a;fill-rule:evenodd;stroke-width:0.144862"
     d="M 29.264976,23.576037 C 28.987705,23.436731 28.61753,23.10816 28.442364,22.845879 27.79364,21.874523 26.654576,18.417426 26.654576,17.41988 c 0,-1.233176 0.827078,-1.991013 2.172927,-1.991013 0.925701,0 1.610712,0.345944 1.937915,0.978684 0.407484,0.787987 1.68266,4.744711 1.683144,5.2226 8.35e-4,0.824893 -0.583705,1.640602 -1.429607,1.994975 -0.648381,0.271626 -1.143199,0.257777 -1.753979,-0.04909 z"
     id="path14"
     transform="scale(0.2)" />
  <path
     style="fill:#ffd42a;fill-rule:evenodd;stroke-width:0.144862"
     d="m 14.789628,33.678369 c -2.670471,-1.336371 -3.05582,-1.6904 -3.05582,-2.807453 0,-1.56347 1.285972,-2.618923 2.723293,-2.235123 0.78439,0.209451 3.913204,1.758674 4.62569,2.290396 1.68335,1.256271 0.685592,3.91308 -1.469548,3.91308 -0.34025,0 -1.256847,-0.37685 -2.823615,-1.1609 z"
     id="path15"
     transform="scale(0.2)" />
  <path
     style="fill:#ffd42a;fill-rule:evenodd;stroke-width:0.144862"
     d="m 12.040859,52.924545 c -0.757584,-0.217337 -1.135845,-0.526976 -1.458832,-1.194179 -0.576198,-1.190265 -0.264836,-2.301634 0.823517,-2.939451 0.924948,-0.542056 4.13851,-1.632787 5.095453,-1.729472 0.69309,-0.07003 0.881243,-0.03277 1.303688,0.258129 0.839859,0.578342 1.099783,1.052413 1.099783,2.005879 0,1.452689 -0.411333,1.798606 -3.440655,2.893465 -2.187158,0.790484 -2.73413,0.903241 -3.422954,0.705629 z"
     id="path16"
     transform="scale(0.2)" />
  <path
     style="fill:#ffdd55;fill-rule:evenodd;stroke-width:0.144862"
     d="m 23.102652,49.754459 c -0.67126,-1.332943 -1.294818,-3.223869 -1.598461,-4.847294 -0.32414,-1.733009 -0.223566,-4.858068 0.209001,-6.49418 1.160579,-4.389691 4.161933,-8.236629 8.128344,-10.418374 4.26641,-2.346763 10.002693,-2.475022 14.54692,-0.325258 1.023385,0.484138 3.211039,1.930686 3.681789,2.434517 l 0.338274,0.362046 -1.931754,0.606013 c -4.145688,1.300548 -7.035682,3.111855 -10.162024,6.369058 -2.338681,2.436573 -3.936148,5.158314 -5.104812,8.697504 -0.302553,0.916251 -0.568112,1.744568 -0.590132,1.840705 -0.02202,0.09614 -0.51578,0.312551 -1.097243,0.48092 -1.676562,0.485465 -3.426182,1.143252 -4.65931,1.751714 -0.6267,0.309231 -1.163679,0.562239 -1.193289,0.562239 -0.02961,0 -0.284896,-0.458825 -0.567303,-1.01961 z"
     id="path17"
     transform="scale(0.2)" />
  <path
     style="fill:#ffdd55;fill-rule:evenodd;stroke-width:0.144862"
     d="m 46.304003,24.553187 c -0.923753,-0.283951 -1.462451,-1.148501 -1.36267,-2.186936 0.08005,-0.83309 1.76885,-4.321882 2.471639,-5.106012 0.368756,-0.411435 0.582664,-0.523889 1.043308,-0.548478 1.106346,-0.05906 1.359279,0.01253 1.878375,0.531625 0.467422,0.467422 0.511634,0.583718 0.509408,1.339972 -0.0018,0.600344 -0.135764,1.156864 -0.487164,2.023285 -0.573644,1.414395 -1.780808,3.472512 -2.190343,3.734355 -0.399574,0.255475 -1.36422,0.365371 -1.862553,0.212189 z"
     id="path18"
     transform="scale(0.2)" />
  <path
     style="fill:#ffdd55;fill-rule:evenodd;stroke-width:0.144862"
     d="m 23.191812,49.787612 c -0.562588,-1.11448 -1.385601,-3.614493 -1.609081,-4.8878 -0.243596,-1.387917 -0.116761,-5.338928 0.209028,-6.511429 0.793394,-2.855387 2.11785,-5.119237 4.283369,-7.321424 3.287989,-3.343663 6.666245,-4.791351 11.226792,-4.81103 2.707109,-0.01168 5.068512,0.499671 7.17066,1.552779 1.039192,0.520601 3.02581,1.838242 3.440077,2.281659 l 0.325547,0.348455 -2.063889,0.686181 c -3.481332,1.157437 -5.875717,2.528544 -8.342024,4.776931 -3.519844,3.208835 -5.533463,6.422106 -6.975243,11.13088 -0.333531,1.089294 -0.09383,0.934495 -2.898716,1.871978 -0.756903,0.252983 -2.002351,0.744469 -2.767662,1.092191 -0.765311,0.347723 -1.432548,0.632224 -1.482748,0.632224 -0.0502,0 -0.28245,-0.378718 -0.51611,-0.841595 z"
     id="path19"
     transform="scale(0.2)" />
  <path
     style="fill:#ffdd55;fill-rule:evenodd;stroke-width:0.144862"
     d="m 29.10464,23.354685 c -0.611473,-0.412071 -0.980229,-1.062649 -1.563404,-2.758234 -0.900632,-2.618595 -0.979471,-3.801203 -0.301515,-4.522854 0.700838,-0.746008 2.509114,-0.720997 3.192783,0.04416 0.488326,0.546532 1.871683,4.685739 1.871683,5.600353 0,1.529236 -1.909491,2.505943 -3.199547,1.636575 z"
     id="path20"
     transform="scale(0.2)" />
  <path
     style="fill:#ffdd55;fill-rule:evenodd;stroke-width:0.144862"
     d="m 23.034756,49.434097 c -0.307411,-0.65731 -0.773535,-1.879582 -1.035832,-2.716159 -0.476131,-1.518586 -0.476901,-1.525974 -0.47559,-4.563147 0.0013,-2.944312 0.0144,-3.081679 0.408527,-4.273424 0.969023,-2.930114 2.166702,-4.867531 4.345529,-7.029516 3.236898,-3.211877 6.560319,-4.589176 11.09696,-4.598826 2.638099,-0.0056 5.026603,0.517865 7.09823,1.555683 1.045518,0.52377 3.026707,1.839211 3.446151,2.288125 l 0.331621,0.35492 -1.85267,0.603388 c -2.30773,0.751594 -4.419855,1.757748 -6.161268,2.935048 -1.766291,1.194118 -5.09963,4.524152 -6.234281,6.228098 -1.04669,1.571852 -2.227468,4.06436 -2.918756,6.16121 -0.338076,1.02547 -0.623055,1.653392 -0.778852,1.716123 -0.135133,0.05441 -1.093138,0.390874 -2.1289,0.747695 -1.035762,0.35682 -2.430027,0.904618 -3.098367,1.217329 -0.668339,0.31271 -1.275555,0.568563 -1.349368,0.568563 -0.07381,0 -0.385724,-0.537799 -0.693134,-1.19511 z"
     id="path21"
     transform="scale(0.2)" />
  <path
     style="fill:#ffdd55;fill-rule:evenodd;stroke-width:0.144862"
     d="m 23.196531,49.796252 c -0.576401,-1.142817 -1.260252,-3.123929 -1.531306,-4.436188 -0.262425,-1.27048 -0.302405,-4.602077 -0.07225,-6.02061 0.689377,-4.248864 3.90824,-8.711659 8.031266,-11.134956 4.124127,-2.423943 10.021028,-2.644694 14.498659,-0.542757 1.402958,0.658591 3.248674,1.841455 3.797195,2.433507 l 0.332988,0.359414 -1.854037,0.615636 c -4.359651,1.44763 -7.06564,3.17177 -10.193837,6.495081 -2.309323,2.453361 -3.825848,5.050463 -5.063534,8.67148 -0.373498,1.09272 -0.694359,1.800676 -0.842945,1.859899 -0.131947,0.05259 -1.087345,0.391629 -2.123107,0.753422 -1.035762,0.361792 -2.43012,0.910079 -3.098573,1.218416 -0.668452,0.308336 -1.270501,0.560611 -1.337886,0.560611 -0.06739,0 -0.311571,-0.37483 -0.542635,-0.832955 z"
     id="path22"
     transform="scale(0.2)" />
  <path
     style="fill:#ffdd55;fill-rule:evenodd;stroke-width:0.144862"
     d="m 16.680236,34.462909 c -1.131457,-0.42535 -3.311637,-1.548332 -4.06387,-2.093247 -1.051266,-0.761533 -1.082876,-2.285144 -0.06593,-3.178031 0.995228,-0.873821 1.610118,-0.771578 4.604954,0.765708 1.545034,0.793086 2.111005,1.161066 2.361381,1.535315 0.795144,1.188537 0.04517,2.857438 -1.433986,3.191043 -0.387508,0.0874 -0.723412,0.03452 -1.402545,-0.220788 z"
     id="path23"
     transform="scale(0.2)" />
  <path
     style="fill:#ffdd55;fill-rule:evenodd;stroke-width:0.144862"
     d="m 12.040859,52.924545 c -0.757584,-0.217337 -1.135845,-0.526976 -1.458832,-1.194179 -0.576198,-1.190265 -0.264836,-2.301634 0.823517,-2.939451 0.924948,-0.542056 4.13851,-1.632787 5.095453,-1.729472 0.69309,-0.07003 0.881243,-0.03277 1.303688,0.258129 0.839859,0.578342 1.099783,1.052413 1.099783,2.005879 0,1.452689 -0.411333,1.798606 -3.440655,2.893465 -2.187158,0.790484 -2.73413,0.903241 -3.422954,0.705629 z"
     id="path24"
     transform="scale(0.2)" />
  <path
     style="fill:#ffeeaa;fill-rule:evenodd;stroke-width:0.144862"
     d="m 23.17215,49.748663 c -0.580983,-1.150921 -1.381358,-3.567812 -1.597364,-4.823554 -0.109777,-0.638187 -0.144152,-1.861358 -0.09567,-3.404253 0.08871,-2.823164 0.313553,-3.789612 1.405037,-6.039328 1.684614,-3.472246 4.967412,-6.679857 8.223884,-8.03553 4.253769,-1.770848 9.382289,-1.625444 13.403163,0.380008 1.161513,0.579317 2.940311,1.763467 3.409078,2.269433 l 0.333167,0.359606 -1.995289,0.680464 c -3.535199,1.205627 -5.69343,2.417412 -8.112948,4.555191 -3.41918,3.021036 -5.441335,6.068419 -6.997569,10.545325 -0.521885,1.501333 -0.669892,1.785761 -0.995766,1.913578 -0.210522,0.08257 -1.213931,0.447759 -2.229797,0.811528 -1.015866,0.363768 -2.344057,0.887898 -2.951537,1.164737 -0.607479,0.276836 -1.160618,0.503339 -1.229199,0.503339 -0.06858,0 -0.324715,-0.396245 -0.569189,-0.880544 z"
     id="path25"
     transform="scale(0.2)" />
  <path
     style="fill:#ffeeaa;fill-rule:evenodd;stroke-width:0.144862"
     d="M 23.122531,49.434097 C 22.847072,48.856461 22.404604,47.699377 22.139269,46.8628 l -0.482426,-1.521049 v -3.18696 c 0,-3.645285 0.117269,-4.232091 1.331689,-6.663644 1.713529,-3.430887 4.964599,-6.629877 8.06502,-7.935826 4.042687,-1.702847 9.090416,-1.653025 12.967562,0.127991 1.179237,0.541699 3.240026,1.864736 3.742738,2.402859 l 0.321606,0.344259 -1.842655,0.645736 c -4.443345,1.557117 -7.354474,3.472168 -10.425425,6.85824 -1.933152,2.131519 -3.328527,4.541758 -4.598941,7.943775 -0.37795,1.012105 -0.793477,1.930683 -0.923395,2.041287 -0.129917,0.110605 -1.172529,0.543428 -2.316915,0.961829 -1.144386,0.418402 -2.50311,0.950252 -3.019387,1.181889 -0.516276,0.231638 -1.02794,0.42116 -1.13703,0.42116 -0.10909,0 -0.423721,-0.472612 -0.699179,-1.050249 z"
     id="path26"
     transform="scale(0.2)" />
  <path
     style="fill:#ffeeaa;fill-rule:evenodd;stroke-width:0.144862"
     d="m 45.634296,24.011538 c -0.526584,-0.526584 -0.582269,-0.652474 -0.582269,-1.316375 0,-0.825886 0.692769,-2.579875 1.700422,-4.305214 0.762214,-1.305091 1.03744,-1.540762 1.895667,-1.623227 0.763366,-0.07335 1.342385,0.143436 1.833984,0.686647 0.647483,0.71546 0.146279,2.868525 -1.205661,5.179268 -0.970637,1.659016 -1.115158,1.784829 -2.15895,1.879477 -0.899561,0.08157 -0.901806,0.08081 -1.483193,-0.500576 z"
     id="path27"
     transform="scale(0.2)" />
  <path
     style="fill:#ffeeaa;fill-rule:evenodd;stroke-width:0.144862"
     d="m 29.618802,23.53229 c -0.927636,-0.272878 -1.653952,-1.530208 -2.394687,-4.145458 -0.45082,-1.591671 -0.452008,-2.670621 -0.0035,-3.148073 0.445408,-0.474115 1.201452,-0.719776 1.918985,-0.623535 0.728975,0.09778 1.213166,0.419549 1.518358,1.009035 0.362781,0.700722 1.207617,3.235432 1.435976,4.308275 0.185893,0.873337 0.179997,0.98384 -0.08133,1.524213 -0.432356,0.894041 -1.452587,1.352427 -2.393841,1.075543 z"
     id="path28"
     transform="scale(0.2)" />
  <path
     style="fill:#ffeeaa;fill-rule:evenodd;stroke-width:0.144862"
     d="m 16.585728,34.345058 c -2.09954,-0.808781 -4.148949,-2.033682 -4.482816,-2.679311 -0.450695,-0.871547 -0.203444,-1.812432 0.669249,-2.546755 0.730842,-0.614963 1.568827,-0.479965 3.775682,0.608257 2.254185,1.11156 2.949804,1.616928 3.13152,2.27505 0.279864,1.013584 -0.245596,2.06933 -1.241043,2.493485 -0.616248,0.262579 -0.823442,0.245722 -1.852592,-0.150726 z"
     id="path29"
     transform="scale(0.2)" />
  <path
     style="fill:#ffeeaa;fill-rule:evenodd;stroke-width:0.144862"
     d="m 11.646349,52.739935 c -0.660007,-0.287307 -1.112835,-1.009929 -1.18604,-1.892681 -0.123966,-1.494871 0.449131,-1.978854 3.593892,-3.035055 1.327352,-0.445806 2.198471,-0.656544 2.719165,-0.657811 0.690837,-0.0017 0.825303,0.05333 1.368184,0.559722 0.565124,0.527142 0.605685,0.618658 0.6613,1.492072 0.05351,0.840402 0.02209,0.974651 -0.324624,1.386691 -0.469031,0.557411 -1.440175,1.028072 -3.668354,1.777851 -1.808932,0.608703 -2.443286,0.682737 -3.163523,0.369211 z"
     id="path30"
     transform="scale(0.2)" />
  <path
     style="fill:#ffd42a;fill-rule:evenodd;stroke-width:0.144862"
     d="M 23.111554,49.434097 C 22.846415,48.856461 22.41104,47.731971 22.144055,46.935231 l -0.485428,-1.448618 -8.92e-4,-3.186961 c -9.96e-4,-3.557329 0.07024,-4.008909 0.955716,-6.058871 0.822426,-1.903985 2.007578,-3.591152 3.740261,-5.324584 2.361548,-2.36257 4.237122,-3.437856 7.369049,-4.224749 1.066959,-0.268073 1.652092,-0.315701 3.796451,-0.309025 2.249754,0.007 2.691914,0.04982 3.928491,0.380369 0.766375,0.204861 1.880122,0.597351 2.474993,0.872198 1.317465,0.608706 3.230975,1.820223 3.779955,2.393235 l 0.404124,0.421815 -1.780882,0.615511 c -4.133333,1.428567 -6.461297,2.863767 -9.398298,5.794089 -2.836505,2.830055 -4.341672,5.243079 -5.848247,9.375678 -0.29535,0.810157 -0.645792,1.567621 -0.77876,1.683252 -0.132968,0.11563 -1.089201,0.521419 -2.124963,0.901749 -1.035762,0.380332 -2.402728,0.910328 -3.037701,1.177769 -0.634973,0.267442 -1.242202,0.486258 -1.349398,0.486258 -0.107195,0 -0.411833,-0.472612 -0.676972,-1.050249 z"
     id="path31"
     transform="scale(0.2)" />
  <path
     style="fill:#ffd42a;fill-rule:evenodd;stroke-width:0.144862"
     d="m 29.551812,23.437741 c -0.423578,-0.154842 -0.903401,-0.704695 -1.301256,-1.491175 -0.581823,-1.150149 -1.169332,-3.109914 -1.263183,-4.213621 -0.07748,-0.911139 -0.06119,-0.976556 0.360596,-1.448618 0.423701,-0.474204 0.483486,-0.494388 1.464359,-0.494388 0.904141,0 1.065606,0.04298 1.39361,0.370987 0.431116,0.431116 1.192345,2.379689 1.681817,4.305068 l 0.341732,1.344234 -0.288589,0.534485 c -0.498612,0.923458 -1.544268,1.401856 -2.389086,1.093028 z"
     id="path32"
     transform="scale(0.2)" />
  <path
     style="fill:#ffd42a;fill-rule:evenodd;stroke-width:0.144862"
     d="m 45.645871,23.917055 c -0.413826,-0.42696 -0.476273,-0.588923 -0.471365,-1.222524 0.0068,-0.880411 0.627491,-2.511538 1.566431,-4.116588 0.850408,-1.453708 1.168504,-1.701541 2.183951,-1.701541 0.707204,0 0.84425,0.05256 1.28422,0.492531 0.568922,0.568922 0.618497,0.991044 0.272429,2.319691 -0.283728,1.089305 -1.563107,3.579905 -2.168876,4.222207 -0.433055,0.459173 -0.537693,0.498386 -1.329902,0.498386 -0.787581,0 -0.899965,-0.04137 -1.336888,-0.492162 z"
     id="path33"
     transform="scale(0.2)" />
  <path
     style="fill:#ffd42a;fill-rule:evenodd;stroke-width:0.144862"
     d="m 15.89148,33.975798 c -1.537656,-0.673615 -2.727294,-1.369507 -3.382175,-1.97844 -0.427493,-0.397499 -0.485774,-0.539548 -0.485774,-1.183995 0,-1.298566 1.070562,-2.177534 2.312355,-1.898522 1.456421,0.327236 4.644045,2.070806 5.092535,2.785521 0.723421,1.152843 -0.331952,2.860993 -1.755279,2.840966 -0.278859,-0.0039 -1.080607,-0.258412 -1.781662,-0.56553 z"
     id="path34"
     transform="scale(0.2)" />
  <path
     style="fill:#ffd42a;fill-rule:evenodd;stroke-width:0.144862"
     d="m 11.593294,52.616811 c -0.63398,-0.320797 -1.018381,-1.066964 -1.018381,-1.976794 0,-1.024029 0.219766,-1.347238 1.277989,-1.879534 1.307812,-0.657842 4.046919,-1.486573 4.939914,-1.494597 0.739269,-0.0066 0.821937,0.02948 1.341096,0.586048 0.520785,0.558308 0.553263,0.647141 0.553263,1.513236 0,0.814943 -0.04559,0.963788 -0.398882,1.302262 -0.498424,0.477521 -1.858673,1.097183 -3.695197,1.68335 -1.503049,0.479732 -2.417249,0.560805 -2.999802,0.266029 z"
     id="path35"
     transform="scale(0.2)" />
</svg>
