<?xml version="1.0" encoding="UTF-8" standalone="no"?>
<svg
   width="100"
   height="100"
   viewBox="0 0 24 24"
   version="1.1"
   id="svg1"
   sodipodi:docname="partly-cloudy-night.svg"
   inkscape:version="1.4 (e7c3feb100, 2024-10-09)"
   xmlns:inkscape="http://www.inkscape.org/namespaces/inkscape"
   xmlns:sodipodi="http://sodipodi.sourceforge.net/DTD/sodipodi-0.dtd"
   xmlns="http://www.w3.org/2000/svg"
   xmlns:svg="http://www.w3.org/2000/svg">
  <defs
     id="defs1" />
  <sodipodi:namedview
     id="namedview1"
     pagecolor="#ffffff"
     bordercolor="#000000"
     borderopacity="0.25"
     inkscape:showpageshadow="2"
     inkscape:pageopacity="0.0"
     inkscape:pagecheckerboard="0"
     inkscape:deskcolor="#d1d1d1"
     inkscape:zoom="7.81"
     inkscape:cx="50"
     inkscape:cy="50"
     inkscape:window-width="1920"
     inkscape:window-height="1009"
     inkscape:window-x="0"
     inkscape:window-y="0"
     inkscape:window-maximized="1"
     inkscape:current-layer="svg1" />
  <path
     fill="#e3e3e3"
     d="M13.002 8.013c3.168 0 4.966 2.097 5.227 4.63h.08a3.687 3.687 0 0 1 3.692 3.683a3.687 3.687 0 0 1-3.692 3.682H7.694a3.687 3.687 0 0 1-3.692-3.682a3.687 3.687 0 0 1 3.692-3.683h.08c.263-2.55 2.06-4.63 5.228-4.63M6.589 4.005a5.06 5.06 0 0 1 2.263.674a5.06 5.06 0 0 1 2.208 2.595c-1.984.562-3.404 2.001-3.994 3.946l-.069.246l-.058.238l-.206.038a4.67 4.67 0 0 0-2.804 1.815a5.06 5.06 0 0 1-1.797-1.599a.75.75 0 0 1 .366-1.132c1.643-.588 2.527-1.25 3.034-2.216c.552-1.055.654-2.174.287-3.677a.75.75 0 0 1 .77-.928"
     id="path1" />
  <path
     style="fill:#f9f9f9;fill-rule:evenodd;stroke-width:0.128041"
     d="m 15.685019,56.030841 c -1.980117,-1.140362 -4.102939,-2.938819 -5.5941,-4.739326 -1.383165,-1.670109 -1.6837509,-2.312866 -1.6188395,-3.461637 0.041647,-0.737041 0.1172139,-0.9869 0.4353997,-1.439623 0.5194712,-0.739118 0.9222797,-0.986978 2.7684358,-1.703509 6.528108,-2.533687 10.122551,-5.565962 12.071669,-10.183669 1.651608,-3.912867 1.871868,-8.131909 0.696963,-13.350213 -0.164413,-0.730227 -0.23799,-1.385611 -0.193442,-1.723056 0.137218,-1.03941 0.75256,-1.876413 1.788572,-2.432858 0.901343,-0.484114 4.00732,-0.120716 6.802833,0.795928 5.341811,1.751572 9.627642,5.389674 12.148089,10.312116 1.160188,2.265851 1.152149,2.097697 0.116642,2.439421 -5.213555,1.720507 -9.562894,4.975814 -12.479419,9.340348 -1.549516,2.318826 -3.04025,5.700498 -3.567839,8.093507 l -0.161198,0.731153 -0.716998,0.142153 C 23.8173,49.716895 19.745438,52.216182 16.769102,55.85662 l -0.443878,0.542919 z"
     id="path2"
     transform="scale(0.24)" />
</svg>
