<?xml version="1.0" encoding="UTF-8" standalone="no"?>
<svg
   width="100"
   height="100"
   viewBox="0 0 512 512"
   version="1.1"
   id="svg1"
   sodipodi:docname="rainy.svg"
   inkscape:version="1.4 (e7c3feb100, 2024-10-09)"
   xmlns:inkscape="http://www.inkscape.org/namespaces/inkscape"
   xmlns:sodipodi="http://sodipodi.sourceforge.net/DTD/sodipodi-0.dtd"
   xmlns="http://www.w3.org/2000/svg"
   xmlns:svg="http://www.w3.org/2000/svg">
  <defs
     id="defs1" />
  <sodipodi:namedview
     id="namedview1"
     pagecolor="#ffffff"
     bordercolor="#000000"
     borderopacity="0.25"
     inkscape:showpageshadow="2"
     inkscape:pageopacity="0.0"
     inkscape:pagecheckerboard="0"
     inkscape:deskcolor="#d1d1d1"
     inkscape:zoom="1.5253906"
     inkscape:cx="256"
     inkscape:cy="360.89117"
     inkscape:window-width="1920"
     inkscape:window-height="1009"
     inkscape:window-x="0"
     inkscape:window-y="0"
     inkscape:window-maximized="1"
     inkscape:current-layer="svg1" />
  <path
     fill="#e4e4e4"
     d="M456.26 139.37c-16.77-16.73-39.17-28.41-65.17-34a16 16 0 0 1-11.19-9a142.24 142.24 0 0 0-42.19-53.21C314.48 25.39 286.23 16 256 16a140.24 140.24 0 0 0-93.5 35.32c-24.2 21.56-40.91 51.34-48.43 85.83a16.05 16.05 0 0 1-11.72 12.18c-25 6.3-35.71 12.54-49.21 24.56C34 190.93 24 214.14 24 240.8c0 30.55 11.23 55.64 32.47 72.56C75.08 328.17 100.5 336 130 336h234c33.2 0 64.11-11.46 87-32.28c23.84-21.65 37-51.67 37-84.52c0-31.49-11-59.09-31.74-79.83M112 448a16 16 0 0 1-13.3-24.88l32-48a16 16 0 0 1 26.62 17.76l-32 48A16 16 0 0 1 112 448m48 48a16 16 0 0 1-13.29-24.88l64-96a16 16 0 0 1 26.62 17.76l-64 96A16 16 0 0 1 160 496m112-48a16 16 0 0 1-13.3-24.88l32-48a16 16 0 0 1 26.62 17.76l-32 48A16 16 0 0 1 272 448m48 48a16 16 0 0 1-13.3-24.88l64-96a16 16 0 0 1 26.62 17.76l-64 96A16 16 0 0 1 320 496"
     id="path1" />
  <path
     style="fill:#5fbcd3;fill-rule:evenodd;stroke-width:0.65557"
     d="m 105.21895,446.0841 c -3.85597,-2.08525 -5.563577,-3.84352 -7.291625,-7.50792 -1.888283,-4.00418 -2.010947,-8.77417 -0.321298,-12.49415 1.617738,-3.56166 32.455643,-49.851 35.061113,-52.62859 3.13252,-3.33948 6.67549,-4.90443 11.24766,-4.96816 7.50875,-0.10466 13.84598,4.96974 15.36907,12.30643 1.32607,6.38764 0.79733,7.42782 -18.44187,36.28026 -15.946,23.91372 -17.86136,26.52194 -20.69747,28.18458 -4.31105,2.5273 -11.08767,2.90304 -14.92558,0.82755 z"
     id="path2" />
  <path
     style="fill:#5fbcd3;fill-rule:evenodd;stroke-width:0.65557"
     d="m 155.90797,495.02403 c -8.12706,-2.18832 -13.14892,-10.71393 -11.04986,-18.75937 0.53235,-2.04045 10.65791,-17.81802 33.00995,-51.43586 17.73313,-26.67091 33.25445,-49.62902 34.49183,-51.01802 4.31335,-4.84188 10.02321,-6.52156 16.13216,-4.74564 9.11758,2.65055 13.88747,13.33878 9.64746,21.61772 -0.54364,1.06149 -15.70111,23.99604 -33.68327,50.96567 -35.0966,52.63786 -34.74796,52.18533 -41.28483,53.58724 -3.83669,0.82282 -3.37081,0.8364 -7.26344,-0.21174 z"
     id="path3" />
  <path
     style="fill:#5fbcd3;fill-rule:evenodd;stroke-width:0.65557"
     d="m 264.72513,445.79932 c -6.64546,-3.53645 -9.74126,-10.87948 -7.69441,-18.25062 0.74846,-2.69536 32.17755,-50.46553 35.59052,-54.09526 4.27427,-4.54575 9.92613,-6.11051 15.85033,-4.3883 9.12478,2.65264 13.8876,13.33891 9.64072,21.63073 -0.54733,1.06864 -8.61459,13.36654 -17.92724,27.32868 -15.36026,23.02912 -17.22333,25.55644 -20.06945,27.22494 -4.49795,2.63687 -11.03013,2.87024 -15.39047,0.54983 z"
     id="path4" />
  <path
     style="fill:#2ad4ff;fill-rule:evenodd;stroke-width:0.65557"
     d="m 316.37096,495.2196 c -8.21878,-1.97312 -13.5827,-10.64173 -11.58875,-18.72855 0.59235,-2.4024 8.5888,-14.90805 33.03423,-51.66225 17.73899,-26.67091 33.2651,-49.62902 34.50248,-51.01802 4.31335,-4.84188 10.02321,-6.52156 16.13216,-4.74564 9.11758,2.65055 13.88747,13.33878 9.64745,21.61772 -1.92061,3.75013 -66.23241,99.70407 -67.77903,101.12708 -3.23935,2.98047 -9.43145,4.49409 -13.94854,3.40966 z"
     id="path5" />
  <path
     style="fill:#2ad4ff;fill-rule:evenodd;stroke-width:0.65557"
     d="m 265.01516,445.39117 c -5.22334,-2.58551 -8.03181,-7.29742 -8.03181,-13.47539 0,-4.69108 0.45642,-5.48931 20.02744,-35.02644 15.23647,-22.9953 17.91118,-26.21735 22.87282,-27.55338 10.84303,-2.91972 21.20392,6.86079 19.10726,18.03695 -0.4805,2.56127 -31.09475,49.05974 -35.77714,54.34014 -1.52989,1.72527 -3.81602,3.56906 -5.0803,4.09731 -3.44213,1.43821 -9.77468,1.23586 -13.11827,-0.41919 z"
     id="path6" />
  <path
     style="fill:#2ad4ff;fill-rule:evenodd;stroke-width:0.65557"
     d="m 154.0589,493.91674 c -3.83263,-1.73754 -5.67198,-3.50296 -7.60395,-7.29828 -1.08217,-2.12591 -1.57403,-4.19185 -1.57403,-6.61135 0,-3.07575 0.4219,-4.21434 3.34822,-9.03588 11.43298,-18.8375 61.85813,-94.01215 65.56277,-97.74205 4.76217,-4.79465 11.28019,-5.74095 17.54141,-2.54672 6.2837,3.20571 9.73419,12.30542 7.04649,18.58315 -0.90518,2.11425 -48.43285,73.86209 -58.72063,88.64476 -10.13609,14.5647 -13.29277,17.34381 -19.70015,17.34381 -1.62254,0 -4.2776,-0.60185 -5.90013,-1.33744 z"
     id="path7" />
  <path
     style="fill:#2ad4ff;fill-rule:evenodd;stroke-width:0.65557"
     d="m 105.21895,445.68149 c -6.944733,-3.66116 -10.279284,-13.00317 -7.061664,-19.7838 2.254824,-4.75169 32.557864,-49.59204 35.507744,-52.54193 4.84771,-4.84771 11.45481,-5.8634 17.60979,-2.7071 3.17354,1.6274 5.00427,3.62985 6.66241,7.28732 1.94117,4.28177 1.73504,7.46384 -0.8293,12.80211 -2.60062,5.41377 -29.86028,46.4512 -33.8608,50.97496 -1.52573,1.72527 -3.80845,3.56906 -5.07272,4.09731 -3.05604,1.27689 -10.42802,1.20356 -12.95546,-0.12887 z"
     id="path8" />
</svg>
